<svg width="30" height="33" viewBox="0 0 30 33" fill="none" xmlns="http://www.w3.org/2000/svg">
<path d="M10.2811 5.94508C11.1532 3.393 14.6794 3.31571 15.7134 5.71321L15.8009 5.94654L16.9777 9.38821C17.2474 10.1775 17.6833 10.8998 18.2559 11.5063C18.8284 12.1129 19.5244 12.5896 20.2969 12.9042L20.6134 13.0224L24.055 14.1978C26.6071 15.0699 26.6844 18.5961 24.2884 19.6301L24.055 19.7176L20.6134 20.8945C19.8238 21.164 19.1012 21.5997 18.4944 22.1723C17.8876 22.7449 17.4107 23.441 17.0959 24.2136L16.9777 24.5286L15.8023 27.9717C14.9302 30.5238 11.404 30.6011 10.3715 28.2051L10.2811 27.9717L9.10565 24.5301C8.83613 23.7405 8.40036 23.0179 7.82778 22.4111C7.25519 21.8043 6.5591 21.3274 5.78649 21.0126L5.47149 20.8945L2.02982 19.719C-0.52372 18.847 -0.601011 15.3207 1.79649 14.2882L2.02982 14.1978L5.47149 13.0224C6.26079 12.7527 6.98307 12.3168 7.58961 11.7442C8.19615 11.1717 8.67284 10.4757 8.98753 9.70321L9.10565 9.38821L10.2811 5.94508ZM24.7084 0.916748C24.9812 0.916748 25.2485 0.993279 25.48 1.13764C25.7115 1.28201 25.8979 1.48842 26.0179 1.73341L26.0879 1.90404L26.5984 3.40029L28.0961 3.91071C28.3695 4.0036 28.6092 4.17556 28.7847 4.40481C28.9603 4.63406 29.0639 4.91027 29.0823 5.19845C29.1007 5.48662 29.0332 5.77377 28.8883 6.02352C28.7433 6.27327 28.5275 6.47437 28.2682 6.60133L28.0961 6.67133L26.5998 7.18175L26.0894 8.67946C25.9964 8.95279 25.8243 9.19235 25.5949 9.36778C25.3656 9.54321 25.0893 9.64661 24.8012 9.66488C24.513 9.68316 24.2259 9.61548 23.9763 9.47043C23.7266 9.32537 23.5256 9.10947 23.3988 8.85008L23.3288 8.67946L22.8184 7.18321L21.3207 6.67279C21.0472 6.5799 20.8076 6.40793 20.632 6.17868C20.4564 5.94943 20.3528 5.67322 20.3344 5.38505C20.316 5.09688 20.3835 4.80972 20.5285 4.55998C20.6734 4.31023 20.8892 4.10913 21.1486 3.98217L21.3207 3.91216L22.8169 3.40175L23.3273 1.90404C23.4257 1.61591 23.6117 1.36578 23.8594 1.18873C24.107 1.01167 24.4039 0.916565 24.7084 0.916748Z" fill="white"/>
</svg>
