<svg width="14" height="14" viewBox="0 0 14 14" fill="none" xmlns="http://www.w3.org/2000/svg">
<path d="M3.06252 1.75C2.55971 1.75 2.0775 1.94974 1.72196 2.30528C1.36643 2.66081 1.16669 3.14303 1.16669 3.64583V10.3542C1.16669 10.857 1.36643 11.3392 1.72196 11.6947C2.0775 12.0503 2.55971 12.25 3.06252 12.25H10.9375C11.1865 12.25 11.433 12.201 11.663 12.1057C11.893 12.0104 12.102 11.8708 12.2781 11.6947C12.4541 11.5187 12.5938 11.3097 12.689 11.0797C12.7843 10.8497 12.8334 10.6031 12.8334 10.3542V3.64583C12.8334 3.39687 12.7843 3.15034 12.689 2.92033C12.5938 2.69032 12.4541 2.48132 12.2781 2.30528C12.102 2.12923 11.893 1.98959 11.663 1.89431C11.433 1.79904 11.1865 1.75 10.9375 1.75H3.06252ZM5.25002 5.39583C5.25004 5.29447 5.27647 5.19485 5.32671 5.10681C5.37695 5.01877 5.44927 4.94535 5.53653 4.89377C5.62379 4.84219 5.72299 4.81424 5.82434 4.81267C5.92569 4.8111 6.02571 4.83597 6.11452 4.88483L9.03119 6.489C9.12279 6.53931 9.19919 6.61331 9.25241 6.70325C9.30563 6.79319 9.3337 6.89578 9.3337 7.00029C9.3337 7.1048 9.30563 7.20739 9.25241 7.29733C9.19919 7.38728 9.12279 7.46127 9.03119 7.51158L6.11452 9.11575C6.02566 9.16463 5.9256 9.1895 5.82419 9.18791C5.72279 9.18632 5.62355 9.15832 5.53628 9.10667C5.449 9.05502 5.37669 8.98151 5.32649 8.89339C5.27629 8.80527 5.24994 8.70558 5.25002 8.60417V5.39583Z" fill="#7D7D7D"/>
</svg>
