<svg width="31" height="30" viewBox="0 0 31 30" fill="none" xmlns="http://www.w3.org/2000/svg">
<path d="M7.74533 8.75V11.25H22.6903V8.75H7.74533ZM18.9403 16.8488V20.5988H22.6903V16.8488H18.9403ZM2.71533 7.1875C2.71533 6.27582 3.0775 5.40148 3.72215 4.75682C4.36681 4.11216 5.24115 3.75 6.15283 3.75H24.2778C25.1895 3.75 26.0639 4.11216 26.7085 4.75682C27.3532 5.40148 27.7153 6.27582 27.7153 7.1875V22.8125C27.7153 23.7242 27.3532 24.5985 26.7085 25.2432C26.0639 25.8878 25.1895 26.25 24.2778 26.25H6.15283C5.24115 26.25 4.36681 25.8878 3.72215 25.2432C3.0775 24.5985 2.71533 23.7242 2.71533 22.8125V7.1875ZM5.87033 7.8125V12.1875C5.87033 12.705 6.29033 13.125 6.80783 13.125H23.6278C23.8765 13.125 24.1149 13.0262 24.2907 12.8504C24.4666 12.6746 24.5653 12.4361 24.5653 12.1875V7.8125C24.5653 7.56386 24.4666 7.3254 24.2907 7.14959C24.1149 6.97377 23.8765 6.875 23.6278 6.875H6.80783C6.55919 6.875 6.32073 6.97377 6.14492 7.14959C5.9691 7.3254 5.87033 7.56386 5.87033 7.8125ZM17.0653 15.9113V21.5363C17.0653 22.0538 17.4841 22.4738 18.0028 22.4738H23.6278C23.8765 22.4738 24.1149 22.375 24.2907 22.1992C24.4666 22.0233 24.5653 21.7849 24.5653 21.5363V15.9113C24.5653 15.6626 24.4666 15.4242 24.2907 15.2483C24.1149 15.0725 23.8765 14.9738 23.6278 14.9738H18.0028C17.7542 14.9738 17.5157 15.0725 17.3399 15.2483C17.1641 15.4242 17.0653 15.6626 17.0653 15.9113ZM6.80783 15.625C6.55919 15.625 6.32073 15.7238 6.14492 15.8996C5.9691 16.0754 5.87033 16.3139 5.87033 16.5625C5.87033 16.8111 5.9691 17.0496 6.14492 17.2254C6.32073 17.4012 6.55919 17.5 6.80783 17.5H14.2778C14.5265 17.5 14.7649 17.4012 14.9407 17.2254C15.1166 17.0496 15.2153 16.8111 15.2153 16.5625C15.2153 16.3139 15.1166 16.0754 14.9407 15.8996C14.7649 15.7238 14.5265 15.625 14.2778 15.625H6.80783ZM5.87033 20.9375C5.87033 21.455 6.29033 21.875 6.80783 21.875H14.2778C14.5265 21.875 14.7649 21.7762 14.9407 21.6004C15.1166 21.4246 15.2153 21.1861 15.2153 20.9375C15.2153 20.6889 15.1166 20.4504 14.9407 20.2746C14.7649 20.0988 14.5265 20 14.2778 20H6.80783C6.55919 20 6.32073 20.0988 6.14492 20.2746C5.9691 20.4504 5.87033 20.6889 5.87033 20.9375Z" fill="white"/>
</svg>
