<svg width="33" height="33" viewBox="0 0 33 33" fill="none" xmlns="http://www.w3.org/2000/svg">
<g clip-path="url(#clip0_12053_8412)">
<path d="M21.9507 9.04933C21.4913 8.45638 20.8662 8.0132 20.1547 7.776L18.3173 7.17867C18.1763 7.12845 18.0542 7.03582 17.9679 6.91347C17.8816 6.79112 17.8352 6.64506 17.8352 6.49533C17.8352 6.3456 17.8816 6.19954 17.9679 6.07719C18.0542 5.95485 18.1763 5.86221 18.3173 5.812L20.1547 5.21467C20.6984 5.02691 21.1921 4.71777 21.5985 4.3107C22.0049 3.90363 22.3132 3.40934 22.5 2.86533L22.5147 2.82L23.112 0.983999C23.1617 0.842017 23.2542 0.718985 23.3769 0.631935C23.4996 0.544885 23.6463 0.498123 23.7967 0.498123C23.9471 0.498123 24.0938 0.544885 24.2164 0.631935C24.3391 0.718985 24.4317 0.842017 24.4813 0.983999L25.0773 2.82C25.2636 3.37805 25.5774 3.88502 25.9938 4.30069C26.4101 4.71636 26.9176 5.02929 27.476 5.21467L29.312 5.812L29.3493 5.82133C29.4904 5.87154 29.6125 5.96418 29.6988 6.08653C29.7851 6.20887 29.8314 6.35493 29.8314 6.50467C29.8314 6.6544 29.7851 6.80046 29.6988 6.9228C29.6125 7.04515 29.4904 7.13779 29.3493 7.188L27.512 7.78533C26.9539 7.97088 26.4467 8.2839 26.0305 8.69955C25.6144 9.11521 25.3008 9.62209 25.1147 10.18L24.5173 12.016L24.5 12.0613C24.4424 12.1955 24.3456 12.3092 24.2224 12.3874C24.0991 12.4657 23.9551 12.505 23.8092 12.5001C23.6633 12.4952 23.5222 12.4463 23.4045 12.36C23.2867 12.2736 23.1978 12.1537 23.1493 12.016L22.552 10.18C22.4186 9.77138 22.2156 9.38887 21.952 9.04933M32.212 14.1173L31.1907 13.7867C30.8808 13.6831 30.5992 13.5088 30.3682 13.2776C30.1373 13.0464 29.9633 12.7647 29.86 12.4547L29.5267 11.436C29.4991 11.3572 29.4477 11.289 29.3796 11.2407C29.3115 11.1925 29.2301 11.1665 29.1467 11.1665C29.0632 11.1665 28.9818 11.1925 28.9137 11.2407C28.8457 11.289 28.7943 11.3572 28.7667 11.436L28.436 12.4547C28.3346 12.7627 28.1634 13.0431 27.9359 13.2742C27.7083 13.5052 27.4305 13.6806 27.124 13.7867L26.104 14.1173C26.0252 14.1449 25.957 14.1963 25.9087 14.2644C25.8605 14.3325 25.8345 14.4139 25.8345 14.4973C25.8345 14.5808 25.8605 14.6622 25.9087 14.7303C25.957 14.7983 26.0252 14.8497 26.104 14.8773L27.124 15.2093C27.4348 15.313 27.7172 15.4877 27.9487 15.7197C28.1801 15.9516 28.3543 16.2343 28.4573 16.5453L28.788 17.564C28.8156 17.6428 28.867 17.711 28.9351 17.7593C29.0032 17.8075 29.0845 17.8335 29.168 17.8335C29.2515 17.8335 29.3328 17.8075 29.4009 17.7593C29.469 17.711 29.5204 17.6428 29.548 17.564L29.88 16.5453C29.9834 16.2352 30.1576 15.9533 30.3888 15.7222C30.62 15.491 30.9018 15.3168 31.212 15.2133L32.232 14.8827C32.3108 14.8551 32.379 14.8037 32.4273 14.7356C32.4755 14.6675 32.5015 14.5861 32.5015 14.5027C32.5015 14.4192 32.4755 14.3378 32.4273 14.2697C32.379 14.2017 32.3108 14.1503 32.232 14.1227L32.212 14.1173ZM13.712 5.43333C14.8252 4.71891 16.1702 4.45926 17.4693 4.708C17.2392 4.85421 17.0373 5.04075 16.8733 5.25867C16.6302 5.60911 16.4999 6.02546 16.4999 6.452C16.4999 6.87853 16.6302 7.29489 16.8733 7.64533C17.0933 8.02533 17.4307 8.32533 17.8333 8.49867L19.7 9.112C20.06 9.23333 20.388 9.43467 20.66 9.69867L20.9 9.832C21.0689 10.0551 21.1978 10.2996 21.2867 10.5653L21.8333 12.4987C21.9747 12.912 22.24 13.2707 22.5933 13.5253C22.9413 13.7667 23.356 13.8973 23.78 13.8987C24.0947 13.9027 24.4067 13.8293 24.6867 13.6853C24.5295 13.952 24.4467 14.2558 24.4467 14.5653C24.444 14.9253 24.556 15.2747 24.7667 15.5653C24.9733 15.86 25.268 16.084 25.6067 16.2053L26.3267 16.4333L19.3267 21.008C18.4859 21.5565 17.5038 21.8485 16.5 21.8485C15.4962 21.8485 14.5141 21.5565 13.6733 21.008L4.5 15.0147V22.1667C4.5 22.4319 4.39464 22.6862 4.20711 22.8738C4.01957 23.0613 3.76522 23.1667 3.5 23.1667C3.23478 23.1667 2.98043 23.0613 2.79289 22.8738C2.60536 22.6862 2.5 22.4319 2.5 22.1667V13.8333C2.5 13.7151 2.51911 13.604 2.55733 13.5C2.48224 13.2875 2.48116 13.0558 2.55425 12.8426C2.62734 12.6294 2.77032 12.4471 2.96 12.3253L13.712 5.43333ZM7.16667 24.1667V19.1453L12.58 22.6827C13.7459 23.4434 15.1079 23.8485 16.5 23.8485C17.8921 23.8485 19.2541 23.4434 20.42 22.6827L25.8333 19.1453V24.1667C25.8333 24.383 25.7632 24.5936 25.6333 24.7667L25.632 24.768L25.6307 24.7707L25.6267 24.776L25.6147 24.7893L25.5987 24.8107L25.5813 24.8333L25.4667 24.968C25.3326 25.121 25.1915 25.2679 25.044 25.408C24.6747 25.764 24.124 26.2267 23.3773 26.6853C21.8827 27.6053 19.6187 28.5 16.5 28.5C13.3813 28.5 11.1187 27.6067 9.62133 26.6853C9.02199 26.3205 8.46327 25.8927 7.95467 25.4093C7.75206 25.2153 7.56191 25.0087 7.38533 24.7907L7.37333 24.7773L7.36933 24.7707V24.768C7.23914 24.5944 7.1681 24.3836 7.16667 24.1667Z" fill="white"/>
</g>
<defs>
<clipPath id="clip0_12053_8412">
<rect width="32" height="32" fill="white" transform="translate(0.5 0.5)"/>
</clipPath>
</defs>
</svg>
