<svg width="31" height="31" viewBox="0 0 31 31" fill="none" xmlns="http://www.w3.org/2000/svg">
<path fill-rule="evenodd" clip-rule="evenodd" d="M3.34695 24.3881C3.3412 23.9903 3.49369 23.6065 3.7709 23.3212C4.0481 23.0358 4.42731 22.8723 4.82509 22.8666L7.97626 22.821C6.68525 21.5914 5.72845 20.0535 5.19599 18.3521C4.66353 16.6507 4.57294 14.8417 4.93275 13.0955C5.29255 11.3494 6.09091 9.72362 7.25263 8.37128C8.41435 7.01894 9.90119 5.98457 11.5731 5.36559C11.7592 5.29074 11.9584 5.25396 12.1589 5.25744C12.3594 5.26091 12.5572 5.30457 12.7406 5.38582C12.924 5.46708 13.0892 5.58428 13.2265 5.7305C13.3637 5.87672 13.4703 6.04898 13.5399 6.2371C13.6094 6.42522 13.6405 6.62538 13.6313 6.82574C13.6222 7.02609 13.5729 7.22258 13.4865 7.40356C13.4001 7.58455 13.2782 7.74637 13.1282 7.87945C12.9781 8.01253 12.8029 8.11416 12.6129 8.17834C11.3398 8.64961 10.2184 9.45744 9.36825 10.5158C8.51806 11.5741 7.97093 12.8432 7.78517 14.188C7.5994 15.5327 7.78194 16.9027 8.31336 18.1519C8.84477 19.401 9.70514 20.4826 10.8028 21.2814L10.7377 16.7804C10.7319 16.3826 10.8844 15.9988 11.1616 15.7135C11.4388 15.4281 11.818 15.2646 12.2158 15.2588C12.6136 15.2531 12.9974 15.4056 13.2827 15.6828C13.568 15.96 13.7316 16.3392 13.7373 16.737L13.8459 24.2362C13.8516 24.634 13.6991 25.0177 13.4219 25.3031C13.1447 25.5884 12.7655 25.752 12.3677 25.7577L4.8685 25.8662C4.47071 25.872 4.08693 25.7195 3.80159 25.4423C3.51624 25.1651 3.35271 24.7859 3.34695 24.3881ZM16.9309 24.1795C16.8626 23.9948 16.8313 23.7983 16.839 23.6015C16.8466 23.4046 16.8929 23.2112 16.9753 23.0323C17.0577 22.8533 17.1745 22.6924 17.3191 22.5586C17.4637 22.4248 17.6333 22.3208 17.8181 22.2525C19.0912 21.7812 20.2125 20.9734 21.0627 19.9151C21.9129 18.8568 22.46 17.5876 22.6458 16.2429C22.8316 14.8981 22.649 13.5282 22.1176 12.279C21.5862 11.0298 20.7258 9.94822 19.6282 9.14945L19.6933 13.6505C19.6991 14.0483 19.5466 14.432 19.2694 14.7174C18.9922 15.0027 18.613 15.1663 18.2152 15.172C17.8174 15.1778 17.4336 15.0253 17.1483 14.7481C16.8629 14.4709 16.6994 14.0917 16.6936 13.6939L16.5851 6.19467C16.5794 5.79688 16.7319 5.41311 17.0091 5.12776C17.2863 4.84242 17.6655 4.67888 18.0633 4.67312L25.5625 4.56461C25.9603 4.55886 26.344 4.71136 26.6294 4.98856C26.9147 5.26577 27.0783 5.64497 27.084 6.04276C27.0898 6.44054 26.9373 6.82432 26.6601 7.10966C26.3829 7.39501 26.0037 7.55855 25.6059 7.5643L22.4547 7.6099C23.7458 8.8393 24.7026 10.3771 25.2352 12.0785C25.7677 13.7798 25.8585 15.5887 25.4988 17.3348C25.1392 19.0809 24.341 20.7068 23.1794 22.0592C22.0179 23.4116 20.5312 24.4461 18.8594 25.0652C18.6745 25.1338 18.4779 25.1652 18.2809 25.1576C18.0839 25.1501 17.8903 25.1039 17.7112 25.0215C17.5321 24.9391 17.3709 24.8222 17.237 24.6774C17.1031 24.5327 16.9991 24.3645 16.9309 24.1795Z" fill="white"/>
</svg>
