<svg width="33" height="32" viewBox="0 0 33 32" fill="none" xmlns="http://www.w3.org/2000/svg">
<path d="M25 4H7C5.35 4 4 5.35 4 7V25C4 26.65 5.35 28 7 28H25C26.65 28 28 26.65 28 25V7C28 5.35 26.65 4 25 4ZM16.015 23.5C15.13 23.5 14.44 22.795 14.44 21.925C14.44 21.04 15.145 20.365 16.015 20.365C16.9 20.365 17.575 21.04 17.575 21.925C17.56 22.795 16.9 23.5 16.015 23.5ZM19.765 14.245C18.82 15.64 17.92 16.06 17.425 16.96C17.305 17.17 17.23 17.35 17.185 17.695C17.11 18.28 16.645 18.715 16.06 18.715H16.015C15.355 18.715 14.83 18.145 14.89 17.485C14.935 17.065 15.025 16.63 15.265 16.225C15.88 15.13 17.035 14.485 17.71 13.525C18.43 12.505 18.025 10.615 16 10.615C15.085 10.615 14.485 11.095 14.11 11.665C13.825 12.1 13.255 12.25 12.775 12.04C12.145 11.77 11.875 10.99 12.265 10.435C13.03 9.325 14.305 8.5 15.985 8.5C17.83 8.5 19.105 9.34 19.75 10.39C20.305 11.305 20.62 12.985 19.765 14.245Z" fill="white"/>
</svg>
