<svg width="33" height="32" viewBox="0 0 33 32" fill="none" xmlns="http://www.w3.org/2000/svg">
<path d="M22.8333 26.6667H5.49999V9.33333C5.49999 8.6 4.89999 8 4.16666 8C3.43333 8 2.83333 8.6 2.83333 9.33333V26.6667C2.83333 28.1333 4.03333 29.3333 5.49999 29.3333H22.8333C23.5667 29.3333 24.1667 28.7333 24.1667 28C24.1667 27.2667 23.5667 26.6667 22.8333 26.6667Z" fill="#434348"/>
<path d="M26.8333 2.66667H10.8333C9.36666 2.66667 8.16666 3.86667 8.16666 5.33334V21.3333C8.16666 22.8 9.36666 24 10.8333 24H26.8333C28.3 24 29.5 22.8 29.5 21.3333V5.33334C29.5 3.86667 28.3 2.66667 26.8333 2.66667ZM18.8467 20C18.06 20 17.4467 19.3733 17.4467 18.6C17.4467 17.8133 18.0733 17.2133 18.8467 17.2133C19.6333 17.2133 20.2333 17.8133 20.2333 18.6C20.22 19.3733 19.6333 20 18.8467 20ZM22.18 11.7733C21.34 13.0133 20.54 13.3867 20.1 14.1867C19.9933 14.3733 19.9267 14.5333 19.8867 14.84C19.82 15.36 19.4067 15.7467 18.8867 15.7467H18.8467C18.26 15.7467 17.7933 15.24 17.8467 14.6533C17.8867 14.28 17.9667 13.8933 18.18 13.5333C18.7267 12.56 19.7533 11.9867 20.3533 11.1333C20.9933 10.2267 20.6333 8.54667 18.8333 8.54667C18.02 8.54667 17.4867 8.97334 17.1533 9.48001C16.9 9.86667 16.3933 10 15.9667 9.81334C15.4067 9.57334 15.1667 8.88001 15.5133 8.38667C16.1933 7.40001 17.3267 6.66667 18.82 6.66667C20.46 6.66667 21.5933 7.41334 22.1667 8.34667C22.66 9.16001 22.94 10.6533 22.18 11.7733Z" fill="#434348"/>
</svg>
