<svg width="24" height="24" viewBox="0 0 24 24" fill="none" xmlns="http://www.w3.org/2000/svg">
<path d="M3.14096 20.2265C2.99946 20.1777 2.87671 20.0861 2.78982 19.9642C2.70292 19.8424 2.65623 19.6965 2.65625 19.5468C2.65625 16.263 3.3157 13.6369 4.61709 11.7407C6.18936 9.44972 8.66949 8.21617 12 8.06298V4.45306C12 4.31232 12.0413 4.17468 12.1189 4.05722C12.1964 3.93976 12.3067 3.84764 12.4361 3.79229C12.5655 3.73694 12.7083 3.7208 12.8468 3.74587C12.9853 3.77094 13.1134 3.83612 13.2151 3.93332L21.1214 11.4802C21.1916 11.5473 21.2476 11.628 21.2858 11.7173C21.324 11.8066 21.3437 11.9028 21.3437 11.9999C21.3437 12.0971 21.324 12.1932 21.2858 12.2826C21.2476 12.3719 21.1916 12.4526 21.1214 12.5197L13.2151 20.0666C13.1134 20.1638 12.9853 20.2289 12.8468 20.254C12.7083 20.2791 12.5655 20.2629 12.4361 20.2076C12.3067 20.1522 12.1964 20.0601 12.1189 19.9427C12.0413 19.8252 12 19.6876 12 19.5468V15.9634C9.97852 16.0245 8.45117 16.352 7.23514 16.9804C5.92117 17.6596 4.96838 18.6744 3.94146 19.9902C3.84934 20.1082 3.72269 20.1944 3.57918 20.2369C3.43567 20.2795 3.28247 20.2761 3.14096 20.2274V20.2265Z" fill="white"/>
</svg>
