<svg width="24" height="24" viewBox="0 0 24 24" fill="none" xmlns="http://www.w3.org/2000/svg">
<path d="M13.4375 21.3438H10.5625C10.3719 21.3438 10.1891 21.4195 10.0543 21.5543C9.9195 21.6891 9.84377 21.8719 9.84377 22.0625C9.84377 22.2531 9.9195 22.436 10.0543 22.5708C10.1891 22.7055 10.3719 22.7813 10.5625 22.7813H13.4375C13.6281 22.7813 13.811 22.7055 13.9458 22.5708C14.0805 22.436 14.1563 22.2531 14.1563 22.0625C14.1563 21.8719 14.0805 21.6891 13.9458 21.5543C13.811 21.4195 13.6281 21.3438 13.4375 21.3438ZM14.1563 19.1875H9.84377C9.65315 19.1875 9.47033 19.2632 9.33554 19.398C9.20075 19.5328 9.12502 19.7156 9.12502 19.9063C9.12502 20.0969 9.20075 20.2797 9.33554 20.4145C9.47033 20.5493 9.65315 20.625 9.84377 20.625H14.1563C14.3469 20.625 14.5297 20.5493 14.6645 20.4145C14.7993 20.2797 14.875 20.0969 14.875 19.9063C14.875 19.7156 14.7993 19.5328 14.6645 19.398C14.5297 19.2632 14.3469 19.1875 14.1563 19.1875ZM17.0951 3.31617C15.7443 1.96357 13.9348 1.21877 12 1.21877C11.0555 1.21652 10.1199 1.40089 9.24682 1.7613C8.37378 2.12171 7.58054 2.65105 6.91267 3.31892C6.2448 3.98679 5.71546 4.78003 5.35505 5.65307C4.99464 6.52612 4.81027 7.46176 4.81252 8.40627C4.81252 10.5005 5.61527 12.4596 7.01369 13.7807L7.20955 13.9645C8.01859 14.7209 9.12502 15.7573 9.12502 16.6719V17.75C9.12502 17.9406 9.20075 18.1235 9.33554 18.2583C9.47033 18.393 9.65315 18.4688 9.84377 18.4688H10.9219C11.0172 18.4688 11.1086 18.4309 11.176 18.3635C11.2434 18.2961 11.2813 18.2047 11.2813 18.1094V12.8455C11.2813 12.7728 11.2593 12.7018 11.2181 12.6419C11.177 12.582 11.1187 12.536 11.0508 12.5099C10.6358 12.3406 10.2415 12.1243 9.87567 11.8653C9.79345 11.8128 9.72279 11.7441 9.66797 11.6634C9.61316 11.5827 9.57534 11.4917 9.55682 11.3959C9.5383 11.3002 9.53947 11.2016 9.56026 11.1063C9.58104 11.011 9.62101 10.921 9.67772 10.8416C9.73443 10.7622 9.80671 10.6952 9.89014 10.6447C9.97357 10.5942 10.0664 10.5612 10.163 10.5476C10.2596 10.5341 10.358 10.5405 10.4521 10.5662C10.5461 10.5919 10.634 10.6365 10.7103 10.6973C11.0427 10.9327 11.6829 11.2813 12 11.2813C12.3172 11.2813 12.9573 10.9318 13.2906 10.6973C13.4458 10.5997 13.6324 10.5651 13.8123 10.6006C13.9922 10.6361 14.1517 10.739 14.2582 10.8882C14.3647 11.0374 14.4101 11.2217 14.3853 11.4033C14.3604 11.5849 14.2671 11.7502 14.1244 11.8653C13.7585 12.1238 13.3642 12.3396 12.9492 12.5085C12.8814 12.5346 12.823 12.5806 12.7819 12.6405C12.7408 12.7005 12.7187 12.7714 12.7188 12.8441V18.1094C12.7188 18.2047 12.7566 18.2961 12.824 18.3635C12.8914 18.4309 12.9828 18.4688 13.0781 18.4688H14.1563C14.3469 18.4688 14.5297 18.393 14.6645 18.2583C14.7993 18.1235 14.875 17.9406 14.875 17.75V16.6719C14.875 15.7788 15.9693 14.7434 16.7685 13.9869L16.989 13.7776C18.4274 12.4043 19.1875 10.545 19.1875 8.40627C19.1923 7.46167 19.0098 6.5255 18.6507 5.65183C18.2915 4.77816 17.7628 3.98432 17.0951 3.31617Z" fill="white"/>
</svg>
