<svg width="32" height="32" viewBox="0 0 32 32" fill="none" xmlns="http://www.w3.org/2000/svg">
<path d="M12.6135 5.77584C14.3202 3.88384 16.9949 2.6665 20.0002 2.6665C25.1549 2.6665 29.3335 6.24784 29.3335 10.6665C29.3335 13.3185 27.8269 15.6692 25.5095 17.1252L25.3335 17.2265V22.6265C25.3335 22.892 25.2543 23.1514 25.1059 23.3715C24.9576 23.5917 24.7469 23.7625 24.5008 23.8622C24.2548 23.9619 23.9846 23.9859 23.7248 23.931C23.4651 23.8762 23.2276 23.7451 23.0429 23.5545L21.5229 21.9892C22.9482 20.3038 23.7869 18.2345 23.7869 15.9985C23.7869 10.5758 18.8562 6.1385 12.6135 5.77584Z" fill="#434348"/>
<path d="M13.8467 23.848L8.95741 28.888C8.77264 29.0786 8.53517 29.2097 8.27543 29.2645C8.01568 29.3194 7.74548 29.2954 7.49944 29.1957C7.2534 29.096 7.04271 28.9252 6.89436 28.705C6.74601 28.4849 6.66676 28.2255 6.66675 27.96V22.56L6.49075 22.4587C4.17208 21.0027 2.66675 18.652 2.66675 16C2.66675 11.5813 6.84541 8 12.0001 8C17.1547 8 21.3334 11.5813 21.3334 16C21.3334 19.6347 18.5054 22.704 14.6321 23.6773C14.3725 23.7441 14.1106 23.801 13.8467 23.848Z" fill="#434348"/>
</svg>
