<svg width="14" height="14" viewBox="0 0 14 14" fill="none" xmlns="http://www.w3.org/2000/svg">
<path d="M8.16669 8.75C8.33196 8.75 8.47546 8.68933 8.59719 8.568C8.71891 8.44666 8.77958 8.30316 8.77919 8.1375C8.7788 7.97183 8.71813 7.82853 8.59719 7.70758C8.47624 7.58664 8.33274 7.52578 8.16669 7.525C8.00063 7.52422 7.85733 7.58508 7.73677 7.70758C7.61621 7.83008 7.55535 7.97339 7.55419 8.1375C7.55302 8.30161 7.61388 8.44511 7.73677 8.568C7.85966 8.69089 8.00296 8.75155 8.16669 8.75ZM7.72919 6.88333H8.60419C8.60419 6.60139 8.63335 6.39489 8.69169 6.26383C8.75002 6.13278 8.88613 5.96011 9.10002 5.74583C9.39169 5.45416 9.58613 5.2185 9.68335 5.03883C9.78058 4.85916 9.82919 4.64761 9.82919 4.40416C9.82919 3.96666 9.67596 3.60947 9.36952 3.33258C9.06308 3.05569 8.66213 2.91705 8.16669 2.91666C7.76808 2.91666 7.4206 3.02847 7.12427 3.25208C6.82794 3.47569 6.62124 3.77222 6.50419 4.14166L7.29169 4.4625C7.37919 4.21944 7.49838 4.03725 7.64927 3.91591C7.80016 3.79458 7.97263 3.73372 8.16669 3.73333C8.40002 3.73333 8.5896 3.79905 8.73544 3.9305C8.88127 4.06194 8.95419 4.23928 8.95419 4.4625C8.95419 4.59861 8.9153 4.72753 8.83752 4.84925C8.75974 4.97097 8.62363 5.124 8.42919 5.30833C8.10835 5.59028 7.91158 5.81155 7.83885 5.97216C7.76613 6.13278 7.72958 6.4365 7.72919 6.88333ZM4.66669 10.5C4.34585 10.5 4.0713 10.3859 3.84302 10.1576C3.61474 9.9293 3.50041 9.65455 3.50002 9.33333V2.33333C3.50002 2.0125 3.61435 1.73794 3.84302 1.50966C4.07169 1.28139 4.34624 1.16705 4.66669 1.16666H11.6667C11.9875 1.16666 12.2623 1.281 12.4909 1.50966C12.7196 1.73833 12.8337 2.01289 12.8334 2.33333V9.33333C12.8334 9.65416 12.7192 9.92891 12.4909 10.1576C12.2627 10.3862 11.9879 10.5004 11.6667 10.5H4.66669ZM2.33335 12.8333C2.01252 12.8333 1.73796 12.7192 1.50969 12.4909C1.28141 12.2626 1.16708 11.9879 1.16669 11.6667V3.5H2.33335V11.6667H10.5V12.8333H2.33335Z" fill="#7D7D7D"/>
</svg>
