<svg width="25" height="25" viewBox="0 0 25 25" fill="none" xmlns="http://www.w3.org/2000/svg">
<path d="M18.3961 11.6667C18.1565 11.3542 17.8648 11.0833 17.594 10.8125C16.8961 10.1875 16.1044 9.73958 15.4377 9.08333C13.8857 7.5625 13.5419 5.05208 14.5315 3.125C13.5419 3.36458 12.6773 3.90625 11.9377 4.5C9.23982 6.66667 8.17732 10.4896 9.44815 13.7708C9.48982 13.875 9.53148 13.9792 9.53148 14.1146C9.53148 14.3438 9.37524 14.5521 9.1669 14.6354C8.92732 14.7396 8.67732 14.6771 8.4794 14.5104C8.42028 14.4609 8.37084 14.4009 8.33357 14.3333C7.15648 12.8438 6.96898 10.7083 7.76065 9C6.02107 10.4167 5.07315 12.8125 5.20857 15.0729C5.27107 15.5938 5.33357 16.1146 5.51065 16.6354C5.65648 17.2604 5.93773 17.8854 6.25023 18.4375C7.37524 20.2396 9.32315 21.5313 11.4169 21.7917C13.6461 22.0729 16.0315 21.6667 17.7398 20.125C19.6461 18.3958 20.3127 15.625 19.3336 13.25L19.1982 12.9792C18.9794 12.5 18.3961 11.6667 18.3961 11.6667ZM15.1044 18.2292C14.8127 18.4792 14.3336 18.75 13.9586 18.8542C12.7919 19.2708 11.6252 18.6875 10.9377 18C12.1773 17.7083 12.9169 16.7917 13.1357 15.8646C13.3127 15.0312 12.9794 14.3438 12.844 13.5417C12.719 12.7708 12.7398 12.1146 13.0211 11.3958C13.219 11.7917 13.4273 12.1875 13.6773 12.5C14.4794 13.5417 15.7398 14 16.0107 15.4167C16.0523 15.5625 16.0732 15.7083 16.0732 15.8646C16.1044 16.7188 15.7294 17.6563 15.1044 18.2292Z" fill="white"/>
</svg>
