<svg width="33" height="33" viewBox="0 0 33 33" fill="none" xmlns="http://www.w3.org/2000/svg">
<path d="M27.5 27.5H25.5V14.9137L26.9137 13.5C27.1003 13.315 27.2482 13.0947 27.3488 12.852C27.4494 12.6093 27.5008 12.349 27.5 12.0863V6.5C27.5 5.96957 27.2893 5.46086 26.9142 5.08579C26.5391 4.71071 26.0304 4.5 25.5 4.5H23C22.7348 4.5 22.4804 4.60536 22.2929 4.79289C22.1054 4.98043 22 5.23478 22 5.5V8.5H19V5.5C19 5.23478 18.8946 4.98043 18.7071 4.79289C18.5196 4.60536 18.2652 4.5 18 4.5H15C14.7348 4.5 14.4804 4.60536 14.2929 4.79289C14.1054 4.98043 14 5.23478 14 5.5V8.5H11V5.5C11 5.23478 10.8946 4.98043 10.7071 4.79289C10.5196 4.60536 10.2652 4.5 10 4.5H7.5C6.96957 4.5 6.46086 4.71071 6.08579 5.08579C5.71071 5.46086 5.5 5.96957 5.5 6.5V12.0863C5.49916 12.349 5.55056 12.6093 5.6512 12.852C5.75184 13.0947 5.89972 13.315 6.08625 13.5L7.5 14.9137V27.5H5.5C5.23478 27.5 4.98043 27.6054 4.79289 27.7929C4.60536 27.9804 4.5 28.2348 4.5 28.5C4.5 28.7652 4.60536 29.0196 4.79289 29.2071C4.98043 29.3946 5.23478 29.5 5.5 29.5H27.5C27.7652 29.5 28.0196 29.3946 28.2071 29.2071C28.3946 29.0196 28.5 28.7652 28.5 28.5C28.5 28.2348 28.3946 27.9804 28.2071 27.7929C28.0196 27.6054 27.7652 27.5 27.5 27.5ZM14.5 21.5C14.5 20.9696 14.7107 20.4609 15.0858 20.0858C15.4609 19.7107 15.9696 19.5 16.5 19.5C17.0304 19.5 17.5391 19.7107 17.9142 20.0858C18.2893 20.4609 18.5 20.9696 18.5 21.5V27.5H14.5V21.5Z" fill="black"/>
</svg>
