<svg width="31" height="30" viewBox="0 0 31 30" fill="none" xmlns="http://www.w3.org/2000/svg">
<g clip-path="url(#clip0_12615_6693)">
<path d="M26.1066 10.1599L25.7991 10.8674C25.751 10.9826 25.67 11.081 25.5661 11.1502C25.4622 11.2194 25.3402 11.2564 25.2153 11.2564C25.0905 11.2564 24.9685 11.2194 24.8646 11.1502C24.7607 11.081 24.6796 10.9826 24.6316 10.8674L24.3241 10.1599C23.7834 8.90829 22.7933 7.90479 21.5491 7.34739L20.6003 6.92364C20.4852 6.87069 20.3877 6.78585 20.3194 6.67917C20.251 6.5725 20.2147 6.44846 20.2147 6.32176C20.2147 6.19507 20.251 6.07103 20.3194 5.96435C20.3877 5.85767 20.4852 5.77283 20.6003 5.71989L21.4966 5.32114C22.7721 4.74786 23.7792 3.70724 24.3103 2.41364L24.6266 1.64989C24.673 1.53158 24.754 1.43001 24.8591 1.35842C24.9641 1.28683 25.0882 1.24854 25.2153 1.24854C25.3424 1.24854 25.4666 1.28683 25.5716 1.35842C25.6766 1.43001 25.7576 1.53158 25.8041 1.64989L26.1203 2.41239C26.6509 3.70623 27.6576 4.7473 28.9328 5.32114L29.8303 5.72114C29.9451 5.77424 30.0422 5.85906 30.1103 5.9656C30.1784 6.07214 30.2146 6.19594 30.2146 6.32239C30.2146 6.44883 30.1784 6.57263 30.1103 6.67917C30.0422 6.78571 29.9451 6.87054 29.8303 6.92364L28.8803 7.34614C27.6363 7.90409 26.6467 8.90804 26.1066 10.1599ZM12.7153 3.74989H17.7153V6.24989H12.7153C10.7262 6.24989 8.81855 7.04006 7.41203 8.44659C6.00551 9.85311 5.21533 11.7608 5.21533 13.7499C5.21533 18.2624 8.29283 21.2074 15.2153 24.3499V21.2499H17.7153C19.7045 21.2499 21.6121 20.4597 23.0186 19.0532C24.4252 17.6467 25.2153 15.739 25.2153 13.7499H27.7153C27.7153 16.4021 26.6618 18.9456 24.7864 20.821C22.911 22.6963 20.3675 23.7499 17.7153 23.7499V28.1249C11.4653 25.6249 2.71533 21.8749 2.71533 13.7499C2.71533 11.0977 3.7689 8.55418 5.64426 6.67882C7.51963 4.80345 10.0632 3.74989 12.7153 3.74989Z" fill="white"/>
</g>
<defs>
<clipPath id="clip0_12615_6693">
<rect width="30" height="30" fill="white" transform="translate(0.215332)"/>
</clipPath>
</defs>
</svg>
