<svg width="24" height="24" viewBox="0 0 24 24" fill="none" xmlns="http://www.w3.org/2000/svg">
<path d="M9.78102 3.89002C10.345 3.41002 10.627 3.17002 10.921 3.02902C11.2578 2.868 11.6263 2.78442 11.9995 2.78442C12.3728 2.78442 12.7413 2.868 13.078 3.02902C13.373 3.16902 13.655 3.40902 14.218 3.89002C14.443 4.08202 14.555 4.17702 14.675 4.25702C14.9498 4.4412 15.2585 4.569 15.583 4.63302C15.724 4.66102 15.871 4.67302 16.165 4.69702C16.904 4.75502 17.273 4.78502 17.581 4.89402C17.9328 5.01817 18.2524 5.21948 18.5162 5.48318C18.7801 5.74689 18.9816 6.06631 19.106 6.41802C19.215 6.72702 19.244 7.09602 19.303 7.83402C19.326 8.12802 19.338 8.27502 19.366 8.41702C19.43 8.74102 19.558 9.05002 19.742 9.32402C19.822 9.44402 19.918 9.55602 20.109 9.78102C20.589 10.345 20.83 10.627 20.971 10.921C21.132 11.2578 21.2156 11.6263 21.2156 11.9995C21.2156 12.3728 21.132 12.7413 20.971 13.078C20.831 13.372 20.59 13.654 20.109 14.218C19.9779 14.363 19.8553 14.5156 19.742 14.675C19.558 14.9495 19.4302 15.2578 19.366 15.582C19.338 15.724 19.326 15.871 19.303 16.165C19.244 16.903 19.215 17.273 19.106 17.581C18.9816 17.9327 18.7801 18.2522 18.5162 18.5159C18.2524 18.7796 17.9328 18.9809 17.581 19.105C17.273 19.215 16.904 19.244 16.165 19.302C15.871 19.326 15.725 19.338 15.583 19.366C15.2585 19.43 14.9498 19.5578 14.675 19.742C14.516 19.8553 14.3637 19.9779 14.219 20.109C13.655 20.589 13.373 20.829 13.079 20.97C12.7423 21.131 12.3738 21.2146 12.0005 21.2146C11.6273 21.2146 11.2588 21.131 10.922 20.97C10.627 20.83 10.345 20.59 9.78202 20.109C9.637 19.9779 9.4844 19.8553 9.32502 19.742C9.05021 19.5578 8.74158 19.43 8.41702 19.366C8.22444 19.3333 8.03011 19.312 7.83502 19.302C7.09602 19.244 6.72702 19.214 6.41902 19.105C6.06723 18.9809 5.74768 18.7796 5.4838 18.5159C5.21992 18.2522 5.0184 17.9327 4.89402 17.581C4.78502 17.273 4.75602 16.903 4.69702 16.165C4.68745 15.9696 4.66641 15.775 4.63402 15.582C4.56987 15.2578 4.44208 14.9495 4.25802 14.675C4.17802 14.555 4.08202 14.443 3.89102 14.218C3.41102 13.654 3.17002 13.372 3.02902 13.078C2.868 12.7413 2.78442 12.3728 2.78442 11.9995C2.78442 11.6263 2.868 11.2578 3.02902 10.921C3.17002 10.627 3.41002 10.345 3.89102 9.78102C4.08202 9.55602 4.17802 9.44402 4.25802 9.32402C4.44208 9.04951 4.56987 8.74124 4.63402 8.41702C4.66202 8.27502 4.67402 8.12802 4.69702 7.83402C4.75602 7.09602 4.78502 6.72702 4.89402 6.41802C5.01851 6.0662 5.22017 5.74672 5.48423 5.48301C5.74829 5.21929 6.06804 5.01804 6.42002 4.89402C6.72802 4.78502 7.09702 4.75502 7.83602 4.69702C8.13002 4.67302 8.27602 4.66102 8.41802 4.63302C8.74259 4.569 9.05121 4.4412 9.32602 4.25702C9.44602 4.17702 9.55702 4.08202 9.78102 3.89002Z" stroke="white" stroke-width="1.5"/>
<path d="M8.5 12.5L10.5 14.5L15.5 9.5" stroke="white" stroke-width="1.5" stroke-linecap="round" stroke-linejoin="round"/>
</svg>
